<svg xmlns="http://www.w3.org/2000/svg" viewBox="0 0 300 80" fill="none">

  <!-- Globe icon — left side -->
  <g transform="translate(4, 4)">
    <circle cx="36" cy="36" r="28" stroke="#1e293b" stroke-width="1.8" fill="none"/>
    <line x1="36" y1="8"  x2="15" y2="22" stroke="#1e293b" stroke-width="1.1"/>
    <line x1="36" y1="8"  x2="57" y2="19" stroke="#1e293b" stroke-width="1.1"/>
    <line x1="57" y1="19" x2="64" y2="42" stroke="#1e293b" stroke-width="1.1"/>
    <line x1="64" y1="42" x2="48" y2="58" stroke="#1e293b" stroke-width="1.1"/>
    <line x1="48" y1="58" x2="23" y2="57" stroke="#1e293b" stroke-width="1.1"/>
    <line x1="23" y1="57" x2="8"  y2="42" stroke="#1e293b" stroke-width="1.1"/>
    <line x1="8"  y1="42" x2="15" y2="22" stroke="#1e293b" stroke-width="1.1"/>
    <line x1="15" y1="22" x2="57" y2="19" stroke="#1e293b" stroke-width="1.1"/>
    <line x1="57" y1="19" x2="48" y2="58" stroke="#1e293b" stroke-width="1.1"/>
    <line x1="48" y1="58" x2="8"  y2="42" stroke="#1e293b" stroke-width="1.1"/>
    <line x1="8"  y1="42" x2="36" y2="8"  stroke="#1e293b" stroke-width="1.1"/>
    <line x1="15" y1="22" x2="64" y2="42" stroke="#1e293b" stroke-width="1.1"/>
    <line x1="23" y1="57" x2="64" y2="42" stroke="#1e293b" stroke-width="1.1"/>
    <!-- Nodes -->
    <circle cx="36" cy="8"  r="2.8" fill="#1a6fd4"/>
    <circle cx="57" cy="19" r="2.8" fill="#1a6fd4"/>
    <circle cx="64" cy="42" r="2.8" fill="#1a6fd4"/>
    <circle cx="48" cy="58" r="2.8" fill="#1a6fd4"/>
    <circle cx="23" cy="57" r="2.8" fill="#1a6fd4"/>
    <circle cx="8"  cy="42" r="2.8" fill="#1a6fd4"/>
    <circle cx="15" cy="22" r="2.8" fill="#1a6fd4"/>
    <!-- Particles — arriba derecha, lejos del texto -->
    <circle cx="66" cy="10" r="4" fill="#1a6fd4" opacity=".85"/>
    <circle cx="75" cy="4"  r="2.8" fill="#1a6fd4" opacity=".6"/>
    <circle cx="82" cy="0"  r="1.8" fill="#1a6fd4" opacity=".4"/>
  </g>

  <!-- Vertical divider -->
  <line x1="92" y1="10" x2="92" y2="70" stroke="#e2e8f0" stroke-width="1.2"/>

  <!-- Text block — right of divider -->
  <text x="104" y="30"
        font-family="'Segoe UI', Arial, sans-serif"
        font-size="20" font-weight="900"
        fill="#1e293b" letter-spacing="3">YMG</text>

  <text x="104" y="49"
        font-family="'Segoe UI', Arial, sans-serif"
        font-size="15" font-weight="700"
        fill="#1e293b" letter-spacing="2">SOLUTIONS</text>

  <text x="104" y="65"
        font-family="'Segoe UI', Arial, sans-serif"
        font-size="7.5" font-weight="500"
        fill="#64748b" letter-spacing="1.8">INFRAESTRUCTURA · PROYECTOS</text>

</svg>
